<?xml version="1.0" encoding="utf-8"?>
<!-- Generator: Adobe Illustrator 16.0.0, SVG Export Plug-In . SVG Version: 6.00 Build 0)  -->
<!DOCTYPE svg PUBLIC "-//W3C//DTD SVG 1.1//EN" "http://www.w3.org/Graphics/SVG/1.1/DTD/svg11.dtd">
<svg version="1.1" id="Layer_1" xmlns="http://www.w3.org/2000/svg" xmlns:xlink="http://www.w3.org/1999/xlink" x="0px" y="0px"
	 width="600px" height="600px" viewBox="0 0 600 600" enable-background="new 0 0 600 600" xml:space="preserve">
<g>
	<path fill="#F4F3F2" d="M598.274,299.999c0,164.732-133.543,298.275-298.275,298.275c-164.731,0-298.273-133.543-298.273-298.275
		c0-164.731,133.542-298.273,298.273-298.273C464.731,1.726,598.274,135.268,598.274,299.999"/>
	<path fill="#363838" d="M237.772,139.684c0-34.381,27.874-62.253,62.259-62.253c34.381,0,62.256,27.872,62.256,62.253
		c0,34.379-27.875,62.253-62.256,62.253C265.646,201.937,237.772,174.063,237.772,139.684"/>
	<path fill="#363838" d="M329.948,244.351c0.629-13.557,5.292-26.105,12.802-36.478c-5.271-1.101-10.717-1.687-16.304-1.687h-52.823
		c-5.572,0-11.012,0.58-16.255,1.67c7.993,11.082,12.772,24.617,12.849,39.268c9.712-5.341,20.854-8.382,32.689-8.382
		C312.512,238.743,321.654,240.743,329.948,244.351"/>
	<path fill="#F06678" d="M340.488,249.938c18.081,11.34,30.764,30.522,33.079,52.794c7.37,3.441,15.562,5.43,24.232,5.43
		c31.683,0,57.359-25.679,57.359-57.362c0-31.677-25.677-57.351-57.359-57.351C366.412,193.448,340.961,218.665,340.488,249.938"/>
	<path fill="#F0EAD4" d="M302.907,367.385c31.677,0,57.354-25.688,57.354-57.36c0-31.67-25.678-57.356-57.354-57.356
		c-31.674,0-57.362,25.686-57.362,57.356C245.545,341.696,271.233,367.385,302.907,367.385"/>
	<path fill="#F0EAD4" d="M327.241,371.284h-48.667c-40.496,0-73.447,32.956-73.447,73.448v59.525l0.156,0.929l4.097,1.278
		c38.646,12.071,72.22,16.11,99.859,16.11c53.971,0,85.267-15.39,87.195-16.379l3.83-1.938h0.408v-59.525
		C400.674,404.24,367.739,371.284,327.241,371.284"/>
	<path fill="#F06678" d="M422.145,312.077h-48.298c-0.526,19.327-8.777,36.731-21.82,49.237
		c36.002,10.706,62.329,44.081,62.329,83.51v18.345c47.686-1.762,75.167-15.267,76.972-16.175l3.836-1.95h0.408v-59.535
		C495.577,345.021,462.632,312.077,422.145,312.077"/>
	<path fill="#94CFCE" d="M202.265,308.161c11.221,0,21.657-3.277,30.504-8.855c2.816-18.339,12.647-34.365,26.684-45.279
		c0.059-1.074,0.161-2.138,0.161-3.225c0-31.681-25.688-57.354-57.349-57.354c-31.688,0-57.36,25.673-57.36,57.354
		C144.905,282.487,170.577,308.161,202.265,308.161"/>
	<path fill="#94CFCE" d="M253.778,361.314c-12.987-12.446-21.202-29.754-21.808-48.969c-1.789-0.135-3.562-0.269-5.384-0.269
		h-48.663c-40.496,0-73.441,32.944-73.441,73.442v59.524l0.145,0.93l4.104,1.278c30.999,9.69,58.67,14.145,82.708,15.541v-17.975
		C191.444,405.396,217.773,372.015,253.778,361.314"/>
	<path fill="#363838" d="M518.863,378.155c0,17.688-10.427,32.026-23.292,32.026s-23.292-14.338-23.292-32.026
		c0-17.689,10.427-32.032,23.292-32.032S518.863,360.466,518.863,378.155"/>
	<path fill="#363838" d="M127.726,378.155c0,17.688-10.432,32.026-23.292,32.026c-12.867,0-23.297-14.338-23.297-32.026
		c0-17.689,10.43-32.032,23.297-32.032C117.294,346.123,127.726,360.466,127.726,378.155"/>
</g>
</svg>
